<svg version="1.1" xmlns="http://www.w3.org/2000/svg" viewBox="0 0 345.5 337" width="345.5" height="337" class="excalidraw-svg">
  <!-- svg-source:excalidraw -->
  
  <defs>
    <style class="style-fonts">
      @font-face {
        font-family: "Virgil";
        src: url("https://excalidraw.com/Virgil.woff2");
      }
      @font-face {
        font-family: "Cascadia";
        src: url("https://excalidraw.com/Cascadia.woff2");
      }
      @font-face {
        font-family: "Assistant";
        src: url("https://excalidraw.com/Assistant-Regular.woff2");
      }
    </style>
    
  </defs>
  <rect x="0" y="0" width="345.5" height="337" fill="#ffffff"/><g stroke-linecap="round" transform="translate(189.5 46.66667175292969) rotate(0 73 111.5)"><path d="M0 0 L146 0 L146 223 L0 223" stroke="none" stroke-width="0" fill="#ffc9c9"/><path d="M0 0 C37.66 0, 75.33 0, 146 0 M0 0 C56.88 0, 113.76 0, 146 0 M146 0 C146 82.09, 146 164.18, 146 223 M146 0 C146 68.18, 146 136.36, 146 223 M146 223 C105.02 223, 64.04 223, 0 223 M146 223 C104.31 223, 62.62 223, 0 223 M0 223 C0 170.98, 0 118.96, 0 0 M0 223 C0 155.06, 0 87.13, 0 0" stroke="transparent" stroke-width="2" fill="none"/></g><g stroke-linecap="round" transform="translate(38.5 47.16667175292969) rotate(0 73 111.5)"><path d="M0 0 L146 0 L146 223 L0 223" stroke="none" stroke-width="0" fill="#ffc9c9"/><path d="M0 0 C47.88 0, 95.75 0, 146 0 M0 0 C56.24 0, 112.48 0, 146 0 M146 0 C146 55.6, 146 111.19, 146 223 M146 0 C146 56.95, 146 113.91, 146 223 M146 223 C114.74 223, 83.48 223, 0 223 M146 223 C115.96 223, 85.92 223, 0 223 M0 223 C0 155.49, 0 87.97, 0 0 M0 223 C0 157.93, 0 92.86, 0 0" stroke="transparent" stroke-width="2" fill="none"/></g><g stroke-linecap="round"><g transform="translate(44.5 327) rotate(0 -1 -158.5)"><path d="M0 0 C-0.33 -52.83, -1.67 -264.17, -2 -317 M0 0 C-0.33 -52.83, -1.67 -264.17, -2 -317" stroke="#1e1e1e" stroke-width="4" fill="none"/></g><g transform="translate(44.5 327) rotate(0 -1 -158.5)"><path d="M6.7 -293.56 C3.74 -301.52, 0.79 -309.48, -2 -317 M6.7 -293.56 C4.11 -300.52, 1.53 -307.48, -2 -317" stroke="#1e1e1e" stroke-width="4" fill="none"/></g><g transform="translate(44.5 327) rotate(0 -1 -158.5)"><path d="M-10.4 -293.45 C-7.55 -301.45, -4.7 -309.44, -2 -317 M-10.4 -293.45 C-7.91 -300.45, -5.41 -307.44, -2 -317" stroke="#1e1e1e" stroke-width="4" fill="none"/></g></g><mask/><g stroke-linecap="round"><g transform="translate(10 276.5) rotate(0 150.5 -0.25)"><path d="M0 0 C50.17 -0.08, 250.83 -0.42, 301 -0.5 M0 0 C50.17 -0.08, 250.83 -0.42, 301 -0.5" stroke="#1e1e1e" stroke-width="4" fill="none"/></g><g transform="translate(10 276.5) rotate(0 150.5 -0.25)"><path d="M277.52 8.09 C285.51 5.17, 293.51 2.24, 301 -0.5 M277.52 8.09 C285.59 5.14, 293.66 2.18, 301 -0.5" stroke="#1e1e1e" stroke-width="4" fill="none"/></g><g transform="translate(10 276.5) rotate(0 150.5 -0.25)"><path d="M277.49 -9.01 C285.5 -6.11, 293.5 -3.22, 301 -0.5 M277.49 -9.01 C285.57 -6.09, 293.65 -3.16, 301 -0.5" stroke="#1e1e1e" stroke-width="4" fill="none"/></g></g><mask/><g stroke-linecap="round" transform="translate(83.5 147) rotate(0 6 6)"><path d="M12 6 C12 6.35, 11.97 6.7, 11.91 7.04 C11.85 7.38, 11.76 7.73, 11.64 8.05 C11.52 8.38, 11.37 8.7, 11.2 9 C11.02 9.3, 10.82 9.59, 10.6 9.86 C10.37 10.12, 10.12 10.37, 9.86 10.6 C9.59 10.82, 9.3 11.02, 9 11.2 C8.7 11.37, 8.38 11.52, 8.05 11.64 C7.73 11.76, 7.38 11.85, 7.04 11.91 C6.7 11.97, 6.35 12, 6 12 C5.65 12, 5.3 11.97, 4.96 11.91 C4.62 11.85, 4.27 11.76, 3.95 11.64 C3.62 11.52, 3.3 11.37, 3 11.2 C2.7 11.02, 2.41 10.82, 2.14 10.6 C1.88 10.37, 1.63 10.12, 1.4 9.86 C1.18 9.59, 0.98 9.3, 0.8 9 C0.63 8.7, 0.48 8.38, 0.36 8.05 C0.24 7.73, 0.15 7.38, 0.09 7.04 C0.03 6.7, 0 6.35, 0 6 C0 5.65, 0.03 5.3, 0.09 4.96 C0.15 4.62, 0.24 4.27, 0.36 3.95 C0.48 3.62, 0.63 3.3, 0.8 3 C0.98 2.7, 1.18 2.41, 1.4 2.14 C1.63 1.88, 1.88 1.63, 2.14 1.4 C2.41 1.18, 2.7 0.98, 3 0.8 C3.3 0.63, 3.62 0.48, 3.95 0.36 C4.27 0.24, 4.62 0.15, 4.96 0.09 C5.3 0.03, 5.65 0, 6 0 C6.35 0, 6.7 0.03, 7.04 0.09 C7.38 0.15, 7.73 0.24, 8.05 0.36 C8.38 0.48, 8.7 0.63, 9 0.8 C9.3 0.98, 9.59 1.18, 9.86 1.4 C10.12 1.63, 10.37 1.88, 10.6 2.14 C10.82 2.41, 11.02 2.7, 11.2 3 C11.37 3.3, 11.52 3.62, 11.64 3.95 C11.76 4.27, 11.85 4.62, 11.91 4.96 C11.97 5.3, 11.98 5.83, 12 6 C12.02 6.17, 12.02 5.83, 12 6" stroke="none" stroke-width="0" fill="#ff0000"/><path d="M12 6 C12 6.35, 11.97 6.7, 11.91 7.04 C11.85 7.38, 11.76 7.73, 11.64 8.05 C11.52 8.38, 11.37 8.7, 11.2 9 C11.02 9.3, 10.82 9.59, 10.6 9.86 C10.37 10.12, 10.12 10.37, 9.86 10.6 C9.59 10.82, 9.3 11.02, 9 11.2 C8.7 11.37, 8.38 11.52, 8.05 11.64 C7.73 11.76, 7.38 11.85, 7.04 11.91 C6.7 11.97, 6.35 12, 6 12 C5.65 12, 5.3 11.97, 4.96 11.91 C4.62 11.85, 4.27 11.76, 3.95 11.64 C3.62 11.52, 3.3 11.37, 3 11.2 C2.7 11.02, 2.41 10.82, 2.14 10.6 C1.88 10.37, 1.63 10.12, 1.4 9.86 C1.18 9.59, 0.98 9.3, 0.8 9 C0.63 8.7, 0.48 8.38, 0.36 8.05 C0.24 7.73, 0.15 7.38, 0.09 7.04 C0.03 6.7, 0 6.35, 0 6 C0 5.65, 0.03 5.3, 0.09 4.96 C0.15 4.62, 0.24 4.27, 0.36 3.95 C0.48 3.62, 0.63 3.3, 0.8 3 C0.98 2.7, 1.18 2.41, 1.4 2.14 C1.63 1.88, 1.88 1.63, 2.14 1.4 C2.41 1.18, 2.7 0.98, 3 0.8 C3.3 0.63, 3.62 0.48, 3.95 0.36 C4.27 0.24, 4.62 0.15, 4.96 0.09 C5.3 0.03, 5.65 0, 6 0 C6.35 0, 6.7 0.03, 7.04 0.09 C7.38 0.15, 7.73 0.24, 8.05 0.36 C8.38 0.48, 8.7 0.63, 9 0.8 C9.3 0.98, 9.59 1.18, 9.86 1.4 C10.12 1.63, 10.37 1.88, 10.6 2.14 C10.82 2.41, 11.02 2.7, 11.2 3 C11.37 3.3, 11.52 3.62, 11.64 3.95 C11.76 4.27, 11.85 4.62, 11.91 4.96 C11.97 5.3, 11.98 5.83, 12 6 C12.02 6.17, 12.02 5.83, 12 6" stroke="#e03131" stroke-width="4" fill="none"/></g><g stroke-linecap="round" transform="translate(101.5 176) rotate(0 6 6)"><path d="M12 6 C12 6.35, 11.97 6.7, 11.91 7.04 C11.85 7.38, 11.76 7.73, 11.64 8.05 C11.52 8.38, 11.37 8.7, 11.2 9 C11.02 9.3, 10.82 9.59, 10.6 9.86 C10.37 10.12, 10.12 10.37, 9.86 10.6 C9.59 10.82, 9.3 11.02, 9 11.2 C8.7 11.37, 8.38 11.52, 8.05 11.64 C7.73 11.76, 7.38 11.85, 7.04 11.91 C6.7 11.97, 6.35 12, 6 12 C5.65 12, 5.3 11.97, 4.96 11.91 C4.62 11.85, 4.27 11.76, 3.95 11.64 C3.62 11.52, 3.3 11.37, 3 11.2 C2.7 11.02, 2.41 10.82, 2.14 10.6 C1.88 10.37, 1.63 10.12, 1.4 9.86 C1.18 9.59, 0.98 9.3, 0.8 9 C0.63 8.7, 0.48 8.38, 0.36 8.05 C0.24 7.73, 0.15 7.38, 0.09 7.04 C0.03 6.7, 0 6.35, 0 6 C0 5.65, 0.03 5.3, 0.09 4.96 C0.15 4.62, 0.24 4.27, 0.36 3.95 C0.48 3.62, 0.63 3.3, 0.8 3 C0.98 2.7, 1.18 2.41, 1.4 2.14 C1.63 1.88, 1.88 1.63, 2.14 1.4 C2.41 1.18, 2.7 0.98, 3 0.8 C3.3 0.63, 3.62 0.48, 3.95 0.36 C4.27 0.24, 4.62 0.15, 4.96 0.09 C5.3 0.03, 5.65 0, 6 0 C6.35 0, 6.7 0.03, 7.04 0.09 C7.38 0.15, 7.73 0.24, 8.05 0.36 C8.38 0.48, 8.7 0.63, 9 0.8 C9.3 0.98, 9.59 1.18, 9.86 1.4 C10.12 1.63, 10.37 1.88, 10.6 2.14 C10.82 2.41, 11.02 2.7, 11.2 3 C11.37 3.3, 11.52 3.62, 11.64 3.95 C11.76 4.27, 11.85 4.62, 11.91 4.96 C11.97 5.3, 11.98 5.83, 12 6 C12.02 6.17, 12.02 5.83, 12 6" stroke="none" stroke-width="0" fill="#ff0000"/><path d="M12 6 C12 6.35, 11.97 6.7, 11.91 7.04 C11.85 7.38, 11.76 7.73, 11.64 8.05 C11.52 8.38, 11.37 8.7, 11.2 9 C11.02 9.3, 10.82 9.59, 10.6 9.86 C10.37 10.12, 10.12 10.37, 9.86 10.6 C9.59 10.82, 9.3 11.02, 9 11.2 C8.7 11.37, 8.38 11.52, 8.05 11.64 C7.73 11.76, 7.38 11.85, 7.04 11.91 C6.7 11.97, 6.35 12, 6 12 C5.65 12, 5.3 11.97, 4.96 11.91 C4.62 11.85, 4.27 11.76, 3.95 11.64 C3.62 11.52, 3.3 11.37, 3 11.2 C2.7 11.02, 2.41 10.82, 2.14 10.6 C1.88 10.37, 1.63 10.12, 1.4 9.86 C1.18 9.59, 0.98 9.3, 0.8 9 C0.63 8.7, 0.48 8.38, 0.36 8.05 C0.24 7.73, 0.15 7.38, 0.09 7.04 C0.03 6.7, 0 6.35, 0 6 C0 5.65, 0.03 5.3, 0.09 4.96 C0.15 4.62, 0.24 4.27, 0.36 3.95 C0.48 3.62, 0.63 3.3, 0.8 3 C0.98 2.7, 1.18 2.41, 1.4 2.14 C1.63 1.88, 1.88 1.63, 2.14 1.4 C2.41 1.18, 2.7 0.98, 3 0.8 C3.3 0.63, 3.62 0.48, 3.95 0.36 C4.27 0.24, 4.62 0.15, 4.96 0.09 C5.3 0.03, 5.65 0, 6 0 C6.35 0, 6.7 0.03, 7.04 0.09 C7.38 0.15, 7.73 0.24, 8.05 0.36 C8.38 0.48, 8.7 0.63, 9 0.8 C9.3 0.98, 9.59 1.18, 9.86 1.4 C10.12 1.63, 10.37 1.88, 10.6 2.14 C10.82 2.41, 11.02 2.7, 11.2 3 C11.37 3.3, 11.52 3.62, 11.64 3.95 C11.76 4.27, 11.85 4.62, 11.91 4.96 C11.97 5.3, 11.98 5.83, 12 6 C12.02 6.17, 12.02 5.83, 12 6" stroke="#e03131" stroke-width="4" fill="none"/></g><g stroke-linecap="round" transform="translate(128.5 153) rotate(0 6 6)"><path d="M12 6 C12 6.35, 11.97 6.7, 11.91 7.04 C11.85 7.38, 11.76 7.73, 11.64 8.05 C11.52 8.38, 11.37 8.7, 11.2 9 C11.02 9.3, 10.82 9.59, 10.6 9.86 C10.37 10.12, 10.12 10.37, 9.86 10.6 C9.59 10.82, 9.3 11.02, 9 11.2 C8.7 11.37, 8.38 11.52, 8.05 11.64 C7.73 11.76, 7.38 11.85, 7.04 11.91 C6.7 11.97, 6.35 12, 6 12 C5.65 12, 5.3 11.97, 4.96 11.91 C4.62 11.85, 4.27 11.76, 3.95 11.64 C3.62 11.52, 3.3 11.37, 3 11.2 C2.7 11.02, 2.41 10.82, 2.14 10.6 C1.88 10.37, 1.63 10.12, 1.4 9.86 C1.18 9.59, 0.98 9.3, 0.8 9 C0.63 8.7, 0.48 8.38, 0.36 8.05 C0.24 7.73, 0.15 7.38, 0.09 7.04 C0.03 6.7, 0 6.35, 0 6 C0 5.65, 0.03 5.3, 0.09 4.96 C0.15 4.62, 0.24 4.27, 0.36 3.95 C0.48 3.62, 0.63 3.3, 0.8 3 C0.98 2.7, 1.18 2.41, 1.4 2.14 C1.63 1.88, 1.88 1.63, 2.14 1.4 C2.41 1.18, 2.7 0.98, 3 0.8 C3.3 0.63, 3.62 0.48, 3.95 0.36 C4.27 0.24, 4.62 0.15, 4.96 0.09 C5.3 0.03, 5.65 0, 6 0 C6.35 0, 6.7 0.03, 7.04 0.09 C7.38 0.15, 7.73 0.24, 8.05 0.36 C8.38 0.48, 8.7 0.63, 9 0.8 C9.3 0.98, 9.59 1.18, 9.86 1.4 C10.12 1.63, 10.37 1.88, 10.6 2.14 C10.82 2.41, 11.02 2.7, 11.2 3 C11.37 3.3, 11.52 3.62, 11.64 3.95 C11.76 4.27, 11.85 4.62, 11.91 4.96 C11.97 5.3, 11.98 5.83, 12 6 C12.02 6.17, 12.02 5.83, 12 6" stroke="none" stroke-width="0" fill="#ff0000"/><path d="M12 6 C12 6.35, 11.97 6.7, 11.91 7.04 C11.85 7.38, 11.76 7.73, 11.64 8.05 C11.52 8.38, 11.37 8.7, 11.2 9 C11.02 9.3, 10.82 9.59, 10.6 9.86 C10.37 10.12, 10.12 10.37, 9.86 10.6 C9.59 10.82, 9.3 11.02, 9 11.2 C8.7 11.37, 8.38 11.52, 8.05 11.64 C7.73 11.76, 7.38 11.85, 7.04 11.91 C6.7 11.97, 6.35 12, 6 12 C5.65 12, 5.3 11.97, 4.96 11.91 C4.62 11.85, 4.27 11.76, 3.95 11.64 C3.62 11.52, 3.3 11.37, 3 11.2 C2.7 11.02, 2.41 10.82, 2.14 10.6 C1.88 10.37, 1.63 10.12, 1.4 9.86 C1.18 9.59, 0.98 9.3, 0.8 9 C0.63 8.7, 0.48 8.38, 0.36 8.05 C0.24 7.73, 0.15 7.38, 0.09 7.04 C0.03 6.7, 0 6.35, 0 6 C0 5.65, 0.03 5.3, 0.09 4.96 C0.15 4.62, 0.24 4.27, 0.36 3.95 C0.48 3.62, 0.63 3.3, 0.8 3 C0.98 2.7, 1.18 2.41, 1.4 2.14 C1.63 1.88, 1.88 1.63, 2.14 1.4 C2.41 1.18, 2.7 0.98, 3 0.8 C3.3 0.63, 3.62 0.48, 3.95 0.36 C4.27 0.24, 4.62 0.15, 4.96 0.09 C5.3 0.03, 5.65 0, 6 0 C6.35 0, 6.7 0.03, 7.04 0.09 C7.38 0.15, 7.73 0.24, 8.05 0.36 C8.38 0.48, 8.7 0.63, 9 0.8 C9.3 0.98, 9.59 1.18, 9.86 1.4 C10.12 1.63, 10.37 1.88, 10.6 2.14 C10.82 2.41, 11.02 2.7, 11.2 3 C11.37 3.3, 11.52 3.62, 11.64 3.95 C11.76 4.27, 11.85 4.62, 11.91 4.96 C11.97 5.3, 11.98 5.83, 12 6 C12.02 6.17, 12.02 5.83, 12 6" stroke="#e03131" stroke-width="4" fill="none"/></g><g stroke-linecap="round" transform="translate(96.5 207) rotate(0 6 6)"><path d="M12 6 C12 6.35, 11.97 6.7, 11.91 7.04 C11.85 7.38, 11.76 7.73, 11.64 8.05 C11.52 8.38, 11.37 8.7, 11.2 9 C11.02 9.3, 10.82 9.59, 10.6 9.86 C10.37 10.12, 10.12 10.37, 9.86 10.6 C9.59 10.82, 9.3 11.02, 9 11.2 C8.7 11.37, 8.38 11.52, 8.05 11.64 C7.73 11.76, 7.38 11.85, 7.04 11.91 C6.7 11.97, 6.35 12, 6 12 C5.65 12, 5.3 11.97, 4.96 11.91 C4.62 11.85, 4.27 11.76, 3.95 11.64 C3.62 11.52, 3.3 11.37, 3 11.2 C2.7 11.02, 2.41 10.82, 2.14 10.6 C1.88 10.37, 1.63 10.12, 1.4 9.86 C1.18 9.59, 0.98 9.3, 0.8 9 C0.63 8.7, 0.48 8.38, 0.36 8.05 C0.24 7.73, 0.15 7.38, 0.09 7.04 C0.03 6.7, 0 6.35, 0 6 C0 5.65, 0.03 5.3, 0.09 4.96 C0.15 4.62, 0.24 4.27, 0.36 3.95 C0.48 3.62, 0.63 3.3, 0.8 3 C0.98 2.7, 1.18 2.41, 1.4 2.14 C1.63 1.88, 1.88 1.63, 2.14 1.4 C2.41 1.18, 2.7 0.98, 3 0.8 C3.3 0.63, 3.62 0.48, 3.95 0.36 C4.27 0.24, 4.62 0.15, 4.96 0.09 C5.3 0.03, 5.65 0, 6 0 C6.35 0, 6.7 0.03, 7.04 0.09 C7.38 0.15, 7.73 0.24, 8.05 0.36 C8.38 0.48, 8.7 0.63, 9 0.8 C9.3 0.98, 9.59 1.18, 9.86 1.4 C10.12 1.63, 10.37 1.88, 10.6 2.14 C10.82 2.41, 11.02 2.7, 11.2 3 C11.37 3.3, 11.52 3.62, 11.64 3.95 C11.76 4.27, 11.85 4.62, 11.91 4.96 C11.97 5.3, 11.98 5.83, 12 6 C12.02 6.17, 12.02 5.83, 12 6" stroke="none" stroke-width="0" fill="#ff0000"/><path d="M12 6 C12 6.35, 11.97 6.7, 11.91 7.04 C11.85 7.38, 11.76 7.73, 11.64 8.05 C11.52 8.38, 11.37 8.7, 11.2 9 C11.02 9.3, 10.82 9.59, 10.6 9.86 C10.37 10.12, 10.12 10.37, 9.86 10.6 C9.59 10.82, 9.3 11.02, 9 11.2 C8.7 11.37, 8.38 11.52, 8.05 11.64 C7.73 11.76, 7.38 11.85, 7.04 11.91 C6.7 11.97, 6.35 12, 6 12 C5.65 12, 5.3 11.97, 4.96 11.91 C4.62 11.85, 4.27 11.76, 3.95 11.64 C3.62 11.52, 3.3 11.37, 3 11.2 C2.7 11.02, 2.41 10.82, 2.14 10.6 C1.88 10.37, 1.63 10.12, 1.4 9.86 C1.18 9.59, 0.98 9.3, 0.8 9 C0.63 8.7, 0.48 8.38, 0.36 8.05 C0.24 7.73, 0.15 7.38, 0.09 7.04 C0.03 6.7, 0 6.35, 0 6 C0 5.65, 0.03 5.3, 0.09 4.96 C0.15 4.62, 0.24 4.27, 0.36 3.95 C0.48 3.62, 0.63 3.3, 0.8 3 C0.98 2.7, 1.18 2.41, 1.4 2.14 C1.63 1.88, 1.88 1.63, 2.14 1.4 C2.41 1.18, 2.7 0.98, 3 0.8 C3.3 0.63, 3.62 0.48, 3.95 0.36 C4.27 0.24, 4.62 0.15, 4.96 0.09 C5.3 0.03, 5.65 0, 6 0 C6.35 0, 6.7 0.03, 7.04 0.09 C7.38 0.15, 7.73 0.24, 8.05 0.36 C8.38 0.48, 8.7 0.63, 9 0.8 C9.3 0.98, 9.59 1.18, 9.86 1.4 C10.12 1.63, 10.37 1.88, 10.6 2.14 C10.82 2.41, 11.02 2.7, 11.2 3 C11.37 3.3, 11.52 3.62, 11.64 3.95 C11.76 4.27, 11.85 4.62, 11.91 4.96 C11.97 5.3, 11.98 5.83, 12 6 C12.02 6.17, 12.02 5.83, 12 6" stroke="#e03131" stroke-width="4" fill="none"/></g><g stroke-linecap="round" transform="translate(129.5 181) rotate(0 6 6)"><path d="M12 6 C12 6.35, 11.97 6.7, 11.91 7.04 C11.85 7.38, 11.76 7.73, 11.64 8.05 C11.52 8.38, 11.37 8.7, 11.2 9 C11.02 9.3, 10.82 9.59, 10.6 9.86 C10.37 10.12, 10.12 10.37, 9.86 10.6 C9.59 10.82, 9.3 11.02, 9 11.2 C8.7 11.37, 8.38 11.52, 8.05 11.64 C7.73 11.76, 7.38 11.85, 7.04 11.91 C6.7 11.97, 6.35 12, 6 12 C5.65 12, 5.3 11.97, 4.96 11.91 C4.62 11.85, 4.27 11.76, 3.95 11.64 C3.62 11.52, 3.3 11.37, 3 11.2 C2.7 11.02, 2.41 10.82, 2.14 10.6 C1.88 10.37, 1.63 10.12, 1.4 9.86 C1.18 9.59, 0.98 9.3, 0.8 9 C0.63 8.7, 0.48 8.38, 0.36 8.05 C0.24 7.73, 0.15 7.38, 0.09 7.04 C0.03 6.7, 0 6.35, 0 6 C0 5.65, 0.03 5.3, 0.09 4.96 C0.15 4.62, 0.24 4.27, 0.36 3.95 C0.48 3.62, 0.63 3.3, 0.8 3 C0.98 2.7, 1.18 2.41, 1.4 2.14 C1.63 1.88, 1.88 1.63, 2.14 1.4 C2.41 1.18, 2.7 0.98, 3 0.8 C3.3 0.63, 3.62 0.48, 3.95 0.36 C4.27 0.24, 4.62 0.15, 4.96 0.09 C5.3 0.03, 5.65 0, 6 0 C6.35 0, 6.7 0.03, 7.04 0.09 C7.38 0.15, 7.73 0.24, 8.05 0.36 C8.38 0.48, 8.7 0.63, 9 0.8 C9.3 0.98, 9.59 1.18, 9.86 1.4 C10.12 1.63, 10.37 1.88, 10.6 2.14 C10.82 2.41, 11.02 2.7, 11.2 3 C11.37 3.3, 11.52 3.62, 11.64 3.95 C11.76 4.27, 11.85 4.62, 11.91 4.96 C11.97 5.3, 11.98 5.83, 12 6 C12.02 6.17, 12.02 5.83, 12 6" stroke="none" stroke-width="0" fill="#ff0000"/><path d="M12 6 C12 6.35, 11.97 6.7, 11.91 7.04 C11.85 7.38, 11.76 7.73, 11.64 8.05 C11.52 8.38, 11.37 8.7, 11.2 9 C11.02 9.3, 10.82 9.59, 10.6 9.86 C10.37 10.12, 10.12 10.37, 9.86 10.6 C9.59 10.82, 9.3 11.02, 9 11.2 C8.7 11.37, 8.38 11.52, 8.05 11.64 C7.73 11.76, 7.38 11.85, 7.04 11.91 C6.7 11.97, 6.35 12, 6 12 C5.65 12, 5.3 11.97, 4.96 11.91 C4.62 11.85, 4.27 11.76, 3.95 11.64 C3.62 11.52, 3.3 11.37, 3 11.2 C2.7 11.02, 2.41 10.82, 2.14 10.6 C1.88 10.37, 1.63 10.12, 1.4 9.86 C1.18 9.59, 0.98 9.3, 0.8 9 C0.63 8.7, 0.48 8.38, 0.36 8.05 C0.24 7.73, 0.15 7.38, 0.09 7.04 C0.03 6.7, 0 6.35, 0 6 C0 5.65, 0.03 5.3, 0.09 4.96 C0.15 4.62, 0.24 4.27, 0.36 3.95 C0.48 3.62, 0.63 3.3, 0.8 3 C0.98 2.7, 1.18 2.41, 1.4 2.14 C1.63 1.88, 1.88 1.63, 2.14 1.4 C2.41 1.18, 2.7 0.98, 3 0.8 C3.3 0.63, 3.62 0.48, 3.95 0.36 C4.27 0.24, 4.62 0.15, 4.96 0.09 C5.3 0.03, 5.65 0, 6 0 C6.35 0, 6.7 0.03, 7.04 0.09 C7.38 0.15, 7.73 0.24, 8.05 0.36 C8.38 0.48, 8.7 0.63, 9 0.8 C9.3 0.98, 9.59 1.18, 9.86 1.4 C10.12 1.63, 10.37 1.88, 10.6 2.14 C10.82 2.41, 11.02 2.7, 11.2 3 C11.37 3.3, 11.52 3.62, 11.64 3.95 C11.76 4.27, 11.85 4.62, 11.91 4.96 C11.97 5.3, 11.98 5.83, 12 6 C12.02 6.17, 12.02 5.83, 12 6" stroke="#e03131" stroke-width="4" fill="none"/></g><g stroke-linecap="round" transform="translate(195.8125 105.7734375) rotate(0 6 6)"><path d="M12 6 C12 6.35, 11.97 6.7, 11.91 7.04 C11.85 7.38, 11.76 7.73, 11.64 8.05 C11.52 8.38, 11.37 8.7, 11.2 9 C11.02 9.3, 10.82 9.59, 10.6 9.86 C10.37 10.12, 10.12 10.37, 9.86 10.6 C9.59 10.82, 9.3 11.02, 9 11.2 C8.7 11.37, 8.38 11.52, 8.05 11.64 C7.73 11.76, 7.38 11.85, 7.04 11.91 C6.7 11.97, 6.35 12, 6 12 C5.65 12, 5.3 11.97, 4.96 11.91 C4.62 11.85, 4.27 11.76, 3.95 11.64 C3.62 11.52, 3.3 11.37, 3 11.2 C2.7 11.02, 2.41 10.82, 2.14 10.6 C1.88 10.37, 1.63 10.12, 1.4 9.86 C1.18 9.59, 0.98 9.3, 0.8 9 C0.63 8.7, 0.48 8.38, 0.36 8.05 C0.24 7.73, 0.15 7.38, 0.09 7.04 C0.03 6.7, 0 6.35, 0 6 C0 5.65, 0.03 5.3, 0.09 4.96 C0.15 4.62, 0.24 4.27, 0.36 3.95 C0.48 3.62, 0.63 3.3, 0.8 3 C0.98 2.7, 1.18 2.41, 1.4 2.14 C1.63 1.88, 1.88 1.63, 2.14 1.4 C2.41 1.18, 2.7 0.98, 3 0.8 C3.3 0.63, 3.62 0.48, 3.95 0.36 C4.27 0.24, 4.62 0.15, 4.96 0.09 C5.3 0.03, 5.65 0, 6 0 C6.35 0, 6.7 0.03, 7.04 0.09 C7.38 0.15, 7.73 0.24, 8.05 0.36 C8.38 0.48, 8.7 0.63, 9 0.8 C9.3 0.98, 9.59 1.18, 9.86 1.4 C10.12 1.63, 10.37 1.88, 10.6 2.14 C10.82 2.41, 11.02 2.7, 11.2 3 C11.37 3.3, 11.52 3.62, 11.64 3.95 C11.76 4.27, 11.85 4.62, 11.91 4.96 C11.97 5.3, 11.98 5.83, 12 6 C12.02 6.17, 12.02 5.83, 12 6" stroke="none" stroke-width="0" fill="#0000ff"/><path d="M12 6 C12 6.35, 11.97 6.7, 11.91 7.04 C11.85 7.38, 11.76 7.73, 11.64 8.05 C11.52 8.38, 11.37 8.7, 11.2 9 C11.02 9.3, 10.82 9.59, 10.6 9.86 C10.37 10.12, 10.12 10.37, 9.86 10.6 C9.59 10.82, 9.3 11.02, 9 11.2 C8.7 11.37, 8.38 11.52, 8.05 11.64 C7.73 11.76, 7.38 11.85, 7.04 11.91 C6.7 11.97, 6.35 12, 6 12 C5.65 12, 5.3 11.97, 4.96 11.91 C4.62 11.85, 4.27 11.76, 3.95 11.64 C3.62 11.52, 3.3 11.37, 3 11.2 C2.7 11.02, 2.41 10.82, 2.14 10.6 C1.88 10.37, 1.63 10.12, 1.4 9.86 C1.18 9.59, 0.98 9.3, 0.8 9 C0.63 8.7, 0.48 8.38, 0.36 8.05 C0.24 7.73, 0.15 7.38, 0.09 7.04 C0.03 6.7, 0 6.35, 0 6 C0 5.65, 0.03 5.3, 0.09 4.96 C0.15 4.62, 0.24 4.27, 0.36 3.95 C0.48 3.62, 0.63 3.3, 0.8 3 C0.98 2.7, 1.18 2.41, 1.4 2.14 C1.63 1.88, 1.88 1.63, 2.14 1.4 C2.41 1.18, 2.7 0.98, 3 0.8 C3.3 0.63, 3.62 0.48, 3.95 0.36 C4.27 0.24, 4.62 0.15, 4.96 0.09 C5.3 0.03, 5.65 0, 6 0 C6.35 0, 6.7 0.03, 7.04 0.09 C7.38 0.15, 7.73 0.24, 8.05 0.36 C8.38 0.48, 8.7 0.63, 9 0.8 C9.3 0.98, 9.59 1.18, 9.86 1.4 C10.12 1.63, 10.37 1.88, 10.6 2.14 C10.82 2.41, 11.02 2.7, 11.2 3 C11.37 3.3, 11.52 3.62, 11.64 3.95 C11.76 4.27, 11.85 4.62, 11.91 4.96 C11.97 5.3, 11.98 5.83, 12 6 C12.02 6.17, 12.02 5.83, 12 6" stroke="#0000ff" stroke-width="4" fill="none"/></g><g stroke-linecap="round" transform="translate(228.3125 117.7734375) rotate(0 6 6)"><path d="M12 6 C12 6.35, 11.97 6.7, 11.91 7.04 C11.85 7.38, 11.76 7.73, 11.64 8.05 C11.52 8.38, 11.37 8.7, 11.2 9 C11.02 9.3, 10.82 9.59, 10.6 9.86 C10.37 10.12, 10.12 10.37, 9.86 10.6 C9.59 10.82, 9.3 11.02, 9 11.2 C8.7 11.37, 8.38 11.52, 8.05 11.64 C7.73 11.76, 7.38 11.85, 7.04 11.91 C6.7 11.97, 6.35 12, 6 12 C5.65 12, 5.3 11.97, 4.96 11.91 C4.62 11.85, 4.27 11.76, 3.95 11.64 C3.62 11.52, 3.3 11.37, 3 11.2 C2.7 11.02, 2.41 10.82, 2.14 10.6 C1.88 10.37, 1.63 10.12, 1.4 9.86 C1.18 9.59, 0.98 9.3, 0.8 9 C0.63 8.7, 0.48 8.38, 0.36 8.05 C0.24 7.73, 0.15 7.38, 0.09 7.04 C0.03 6.7, 0 6.35, 0 6 C0 5.65, 0.03 5.3, 0.09 4.96 C0.15 4.62, 0.24 4.27, 0.36 3.95 C0.48 3.62, 0.63 3.3, 0.8 3 C0.98 2.7, 1.18 2.41, 1.4 2.14 C1.63 1.88, 1.88 1.63, 2.14 1.4 C2.41 1.18, 2.7 0.98, 3 0.8 C3.3 0.63, 3.62 0.48, 3.95 0.36 C4.27 0.24, 4.62 0.15, 4.96 0.09 C5.3 0.03, 5.65 0, 6 0 C6.35 0, 6.7 0.03, 7.04 0.09 C7.38 0.15, 7.73 0.24, 8.05 0.36 C8.38 0.48, 8.7 0.63, 9 0.8 C9.3 0.98, 9.59 1.18, 9.86 1.4 C10.12 1.63, 10.37 1.88, 10.6 2.14 C10.82 2.41, 11.02 2.7, 11.2 3 C11.37 3.3, 11.52 3.62, 11.64 3.95 C11.76 4.27, 11.85 4.62, 11.91 4.96 C11.97 5.3, 11.98 5.83, 12 6 C12.02 6.17, 12.02 5.83, 12 6" stroke="none" stroke-width="0" fill="#0000ff"/><path d="M12 6 C12 6.35, 11.97 6.7, 11.91 7.04 C11.85 7.38, 11.76 7.73, 11.64 8.05 C11.52 8.38, 11.37 8.7, 11.2 9 C11.02 9.3, 10.82 9.59, 10.6 9.86 C10.37 10.12, 10.12 10.37, 9.86 10.6 C9.59 10.82, 9.3 11.02, 9 11.2 C8.7 11.37, 8.38 11.52, 8.05 11.64 C7.73 11.76, 7.38 11.85, 7.04 11.91 C6.7 11.97, 6.35 12, 6 12 C5.65 12, 5.3 11.97, 4.96 11.91 C4.62 11.85, 4.27 11.76, 3.95 11.64 C3.62 11.52, 3.3 11.37, 3 11.2 C2.7 11.02, 2.41 10.82, 2.14 10.6 C1.88 10.37, 1.63 10.12, 1.4 9.86 C1.18 9.59, 0.98 9.3, 0.8 9 C0.63 8.7, 0.48 8.38, 0.36 8.05 C0.24 7.73, 0.15 7.38, 0.09 7.04 C0.03 6.7, 0 6.35, 0 6 C0 5.65, 0.03 5.3, 0.09 4.96 C0.15 4.62, 0.24 4.27, 0.36 3.95 C0.48 3.62, 0.63 3.3, 0.8 3 C0.98 2.7, 1.18 2.41, 1.4 2.14 C1.63 1.88, 1.88 1.63, 2.14 1.4 C2.41 1.18, 2.7 0.98, 3 0.8 C3.3 0.63, 3.62 0.48, 3.95 0.36 C4.27 0.24, 4.62 0.15, 4.96 0.09 C5.3 0.03, 5.65 0, 6 0 C6.35 0, 6.7 0.03, 7.04 0.09 C7.38 0.15, 7.73 0.24, 8.05 0.36 C8.38 0.48, 8.7 0.63, 9 0.8 C9.3 0.98, 9.59 1.18, 9.86 1.4 C10.12 1.63, 10.37 1.88, 10.6 2.14 C10.82 2.41, 11.02 2.7, 11.2 3 C11.37 3.3, 11.52 3.62, 11.64 3.95 C11.76 4.27, 11.85 4.62, 11.91 4.96 C11.97 5.3, 11.98 5.83, 12 6 C12.02 6.17, 12.02 5.83, 12 6" stroke="#0000ff" stroke-width="4" fill="none"/></g><g stroke-linecap="round" transform="translate(274.8125 148.7734375) rotate(0 6 6)"><path d="M12 6 C12 6.35, 11.97 6.7, 11.91 7.04 C11.85 7.38, 11.76 7.73, 11.64 8.05 C11.52 8.38, 11.37 8.7, 11.2 9 C11.02 9.3, 10.82 9.59, 10.6 9.86 C10.37 10.12, 10.12 10.37, 9.86 10.6 C9.59 10.82, 9.3 11.02, 9 11.2 C8.7 11.37, 8.38 11.52, 8.05 11.64 C7.73 11.76, 7.38 11.85, 7.04 11.91 C6.7 11.97, 6.35 12, 6 12 C5.65 12, 5.3 11.97, 4.96 11.91 C4.62 11.85, 4.27 11.76, 3.95 11.64 C3.62 11.52, 3.3 11.37, 3 11.2 C2.7 11.02, 2.41 10.82, 2.14 10.6 C1.88 10.37, 1.63 10.12, 1.4 9.86 C1.18 9.59, 0.98 9.3, 0.8 9 C0.63 8.7, 0.48 8.38, 0.36 8.05 C0.24 7.73, 0.15 7.38, 0.09 7.04 C0.03 6.7, 0 6.35, 0 6 C0 5.65, 0.03 5.3, 0.09 4.96 C0.15 4.62, 0.24 4.27, 0.36 3.95 C0.48 3.62, 0.63 3.3, 0.8 3 C0.98 2.7, 1.18 2.41, 1.4 2.14 C1.63 1.88, 1.88 1.63, 2.14 1.4 C2.41 1.18, 2.7 0.98, 3 0.8 C3.3 0.63, 3.62 0.48, 3.95 0.36 C4.27 0.24, 4.62 0.15, 4.96 0.09 C5.3 0.03, 5.65 0, 6 0 C6.35 0, 6.7 0.03, 7.04 0.09 C7.38 0.15, 7.73 0.24, 8.05 0.36 C8.38 0.48, 8.7 0.63, 9 0.8 C9.3 0.98, 9.59 1.18, 9.86 1.4 C10.12 1.63, 10.37 1.88, 10.6 2.14 C10.82 2.41, 11.02 2.7, 11.2 3 C11.37 3.3, 11.52 3.62, 11.64 3.95 C11.76 4.27, 11.85 4.62, 11.91 4.96 C11.97 5.3, 11.98 5.83, 12 6 C12.02 6.17, 12.02 5.83, 12 6" stroke="none" stroke-width="0" fill="#0000ff"/><path d="M12 6 C12 6.35, 11.97 6.7, 11.91 7.04 C11.85 7.38, 11.76 7.73, 11.64 8.05 C11.52 8.38, 11.37 8.7, 11.2 9 C11.02 9.3, 10.82 9.59, 10.6 9.86 C10.37 10.12, 10.12 10.37, 9.86 10.6 C9.59 10.82, 9.3 11.02, 9 11.2 C8.7 11.37, 8.38 11.52, 8.05 11.64 C7.73 11.76, 7.38 11.85, 7.04 11.91 C6.7 11.97, 6.35 12, 6 12 C5.65 12, 5.3 11.97, 4.96 11.91 C4.62 11.85, 4.27 11.76, 3.95 11.64 C3.62 11.52, 3.3 11.37, 3 11.2 C2.7 11.02, 2.41 10.82, 2.14 10.6 C1.88 10.37, 1.63 10.12, 1.4 9.86 C1.18 9.59, 0.98 9.3, 0.8 9 C0.63 8.7, 0.48 8.38, 0.36 8.05 C0.24 7.73, 0.15 7.38, 0.09 7.04 C0.03 6.7, 0 6.35, 0 6 C0 5.65, 0.03 5.3, 0.09 4.96 C0.15 4.62, 0.24 4.27, 0.36 3.95 C0.48 3.62, 0.63 3.3, 0.8 3 C0.98 2.7, 1.18 2.41, 1.4 2.14 C1.63 1.88, 1.88 1.63, 2.14 1.4 C2.41 1.18, 2.7 0.98, 3 0.8 C3.3 0.63, 3.62 0.48, 3.95 0.36 C4.27 0.24, 4.62 0.15, 4.96 0.09 C5.3 0.03, 5.65 0, 6 0 C6.35 0, 6.7 0.03, 7.04 0.09 C7.38 0.15, 7.73 0.24, 8.05 0.36 C8.38 0.48, 8.7 0.63, 9 0.8 C9.3 0.98, 9.59 1.18, 9.86 1.4 C10.12 1.63, 10.37 1.88, 10.6 2.14 C10.82 2.41, 11.02 2.7, 11.2 3 C11.37 3.3, 11.52 3.62, 11.64 3.95 C11.76 4.27, 11.85 4.62, 11.91 4.96 C11.97 5.3, 11.98 5.83, 12 6 C12.02 6.17, 12.02 5.83, 12 6" stroke="#0000ff" stroke-width="4" fill="none"/></g><g stroke-linecap="round" transform="translate(224.3125 169.7734375) rotate(0 6 6)"><path d="M12 6 C12 6.35, 11.97 6.7, 11.91 7.04 C11.85 7.38, 11.76 7.73, 11.64 8.05 C11.52 8.38, 11.37 8.7, 11.2 9 C11.02 9.3, 10.82 9.59, 10.6 9.86 C10.37 10.12, 10.12 10.37, 9.86 10.6 C9.59 10.82, 9.3 11.02, 9 11.2 C8.7 11.37, 8.38 11.52, 8.05 11.64 C7.73 11.76, 7.38 11.85, 7.04 11.91 C6.7 11.97, 6.35 12, 6 12 C5.65 12, 5.3 11.97, 4.96 11.91 C4.62 11.85, 4.27 11.76, 3.95 11.64 C3.62 11.52, 3.3 11.37, 3 11.2 C2.7 11.02, 2.41 10.82, 2.14 10.6 C1.88 10.37, 1.63 10.12, 1.4 9.86 C1.18 9.59, 0.98 9.3, 0.8 9 C0.63 8.7, 0.48 8.38, 0.36 8.05 C0.24 7.73, 0.15 7.38, 0.09 7.04 C0.03 6.7, 0 6.35, 0 6 C0 5.65, 0.03 5.3, 0.09 4.96 C0.15 4.62, 0.24 4.27, 0.36 3.95 C0.48 3.62, 0.63 3.3, 0.8 3 C0.98 2.7, 1.18 2.41, 1.4 2.14 C1.63 1.88, 1.88 1.63, 2.14 1.4 C2.41 1.18, 2.7 0.98, 3 0.8 C3.3 0.63, 3.62 0.48, 3.95 0.36 C4.27 0.24, 4.62 0.15, 4.96 0.09 C5.3 0.03, 5.65 0, 6 0 C6.35 0, 6.7 0.03, 7.04 0.09 C7.38 0.15, 7.73 0.24, 8.05 0.36 C8.38 0.48, 8.7 0.63, 9 0.8 C9.3 0.98, 9.59 1.18, 9.86 1.4 C10.12 1.63, 10.37 1.88, 10.6 2.14 C10.82 2.41, 11.02 2.7, 11.2 3 C11.37 3.3, 11.52 3.62, 11.64 3.95 C11.76 4.27, 11.85 4.62, 11.91 4.96 C11.97 5.3, 11.98 5.83, 12 6 C12.02 6.17, 12.02 5.83, 12 6" stroke="none" stroke-width="0" fill="#0000ff"/><path d="M12 6 C12 6.35, 11.97 6.7, 11.91 7.04 C11.85 7.38, 11.76 7.73, 11.64 8.05 C11.52 8.38, 11.37 8.7, 11.2 9 C11.02 9.3, 10.82 9.59, 10.6 9.86 C10.37 10.12, 10.12 10.37, 9.86 10.6 C9.59 10.82, 9.3 11.02, 9 11.2 C8.7 11.37, 8.38 11.52, 8.05 11.64 C7.73 11.76, 7.38 11.85, 7.04 11.91 C6.7 11.97, 6.35 12, 6 12 C5.65 12, 5.3 11.97, 4.96 11.91 C4.62 11.85, 4.27 11.76, 3.95 11.64 C3.62 11.52, 3.3 11.37, 3 11.2 C2.7 11.02, 2.41 10.82, 2.14 10.6 C1.88 10.37, 1.63 10.12, 1.4 9.86 C1.18 9.59, 0.98 9.3, 0.8 9 C0.63 8.7, 0.48 8.38, 0.36 8.05 C0.24 7.73, 0.15 7.38, 0.09 7.04 C0.03 6.7, 0 6.35, 0 6 C0 5.65, 0.03 5.3, 0.09 4.96 C0.15 4.62, 0.24 4.27, 0.36 3.95 C0.48 3.62, 0.63 3.3, 0.8 3 C0.98 2.7, 1.18 2.41, 1.4 2.14 C1.63 1.88, 1.88 1.63, 2.14 1.4 C2.41 1.18, 2.7 0.98, 3 0.8 C3.3 0.63, 3.62 0.48, 3.95 0.36 C4.27 0.24, 4.62 0.15, 4.96 0.09 C5.3 0.03, 5.65 0, 6 0 C6.35 0, 6.7 0.03, 7.04 0.09 C7.38 0.15, 7.73 0.24, 8.05 0.36 C8.38 0.48, 8.7 0.63, 9 0.8 C9.3 0.98, 9.59 1.18, 9.86 1.4 C10.12 1.63, 10.37 1.88, 10.6 2.14 C10.82 2.41, 11.02 2.7, 11.2 3 C11.37 3.3, 11.52 3.62, 11.64 3.95 C11.76 4.27, 11.85 4.62, 11.91 4.96 C11.97 5.3, 11.98 5.83, 12 6 C12.02 6.17, 12.02 5.83, 12 6" stroke="#0000ff" stroke-width="4" fill="none"/></g><g stroke-linecap="round" transform="translate(208.8125 144.7734375) rotate(0 6 6)"><path d="M12 6 C12 6.35, 11.97 6.7, 11.91 7.04 C11.85 7.38, 11.76 7.73, 11.64 8.05 C11.52 8.38, 11.37 8.7, 11.2 9 C11.02 9.3, 10.82 9.59, 10.6 9.86 C10.37 10.12, 10.12 10.37, 9.86 10.6 C9.59 10.82, 9.3 11.02, 9 11.2 C8.7 11.37, 8.38 11.52, 8.05 11.64 C7.73 11.76, 7.38 11.85, 7.04 11.91 C6.7 11.97, 6.35 12, 6 12 C5.65 12, 5.3 11.97, 4.96 11.91 C4.62 11.85, 4.27 11.76, 3.95 11.64 C3.62 11.52, 3.3 11.37, 3 11.2 C2.7 11.02, 2.41 10.82, 2.14 10.6 C1.88 10.37, 1.63 10.12, 1.4 9.86 C1.18 9.59, 0.98 9.3, 0.8 9 C0.63 8.7, 0.48 8.38, 0.36 8.05 C0.24 7.73, 0.15 7.38, 0.09 7.04 C0.03 6.7, 0 6.35, 0 6 C0 5.65, 0.03 5.3, 0.09 4.96 C0.15 4.62, 0.24 4.27, 0.36 3.95 C0.48 3.62, 0.63 3.3, 0.8 3 C0.98 2.7, 1.18 2.41, 1.4 2.14 C1.63 1.88, 1.88 1.63, 2.14 1.4 C2.41 1.18, 2.7 0.98, 3 0.8 C3.3 0.63, 3.62 0.48, 3.95 0.36 C4.27 0.24, 4.62 0.15, 4.96 0.09 C5.3 0.03, 5.65 0, 6 0 C6.35 0, 6.7 0.03, 7.04 0.09 C7.38 0.15, 7.73 0.24, 8.05 0.36 C8.38 0.48, 8.7 0.63, 9 0.8 C9.3 0.98, 9.59 1.18, 9.86 1.4 C10.12 1.63, 10.37 1.88, 10.6 2.14 C10.82 2.41, 11.02 2.7, 11.2 3 C11.37 3.3, 11.52 3.62, 11.64 3.95 C11.76 4.27, 11.85 4.62, 11.91 4.96 C11.97 5.3, 11.98 5.83, 12 6 C12.02 6.17, 12.02 5.83, 12 6" stroke="none" stroke-width="0" fill="#0000ff"/><path d="M12 6 C12 6.35, 11.97 6.7, 11.91 7.04 C11.85 7.38, 11.76 7.73, 11.64 8.05 C11.52 8.38, 11.37 8.7, 11.2 9 C11.02 9.3, 10.82 9.59, 10.6 9.86 C10.37 10.12, 10.12 10.37, 9.86 10.6 C9.59 10.82, 9.3 11.02, 9 11.2 C8.7 11.37, 8.38 11.52, 8.05 11.64 C7.73 11.76, 7.38 11.85, 7.04 11.91 C6.7 11.97, 6.35 12, 6 12 C5.65 12, 5.3 11.97, 4.96 11.91 C4.62 11.85, 4.27 11.76, 3.95 11.64 C3.62 11.52, 3.3 11.37, 3 11.2 C2.7 11.02, 2.41 10.82, 2.14 10.6 C1.88 10.37, 1.63 10.12, 1.4 9.86 C1.18 9.59, 0.98 9.3, 0.8 9 C0.63 8.7, 0.48 8.38, 0.36 8.05 C0.24 7.73, 0.15 7.38, 0.09 7.04 C0.03 6.7, 0 6.35, 0 6 C0 5.65, 0.03 5.3, 0.09 4.96 C0.15 4.62, 0.24 4.27, 0.36 3.95 C0.48 3.62, 0.63 3.3, 0.8 3 C0.98 2.7, 1.18 2.41, 1.4 2.14 C1.63 1.88, 1.88 1.63, 2.14 1.4 C2.41 1.18, 2.7 0.98, 3 0.8 C3.3 0.63, 3.62 0.48, 3.95 0.36 C4.27 0.24, 4.62 0.15, 4.96 0.09 C5.3 0.03, 5.65 0, 6 0 C6.35 0, 6.7 0.03, 7.04 0.09 C7.38 0.15, 7.73 0.24, 8.05 0.36 C8.38 0.48, 8.7 0.63, 9 0.8 C9.3 0.98, 9.59 1.18, 9.86 1.4 C10.12 1.63, 10.37 1.88, 10.6 2.14 C10.82 2.41, 11.02 2.7, 11.2 3 C11.37 3.3, 11.52 3.62, 11.64 3.95 C11.76 4.27, 11.85 4.62, 11.91 4.96 C11.97 5.3, 11.98 5.83, 12 6 C12.02 6.17, 12.02 5.83, 12 6" stroke="#0000ff" stroke-width="4" fill="none"/></g><g stroke-linecap="round" transform="translate(215.8125 68.2734375) rotate(0 6 6)"><path d="M12 6 C12 6.35, 11.97 6.7, 11.91 7.04 C11.85 7.38, 11.76 7.73, 11.64 8.05 C11.52 8.38, 11.37 8.7, 11.2 9 C11.02 9.3, 10.82 9.59, 10.6 9.86 C10.37 10.12, 10.12 10.37, 9.86 10.6 C9.59 10.82, 9.3 11.02, 9 11.2 C8.7 11.37, 8.38 11.52, 8.05 11.64 C7.73 11.76, 7.38 11.85, 7.04 11.91 C6.7 11.97, 6.35 12, 6 12 C5.65 12, 5.3 11.97, 4.96 11.91 C4.62 11.85, 4.27 11.76, 3.95 11.64 C3.62 11.52, 3.3 11.37, 3 11.2 C2.7 11.02, 2.41 10.82, 2.14 10.6 C1.88 10.37, 1.63 10.12, 1.4 9.86 C1.18 9.59, 0.98 9.3, 0.8 9 C0.63 8.7, 0.48 8.38, 0.36 8.05 C0.24 7.73, 0.15 7.38, 0.09 7.04 C0.03 6.7, 0 6.35, 0 6 C0 5.65, 0.03 5.3, 0.09 4.96 C0.15 4.62, 0.24 4.27, 0.36 3.95 C0.48 3.62, 0.63 3.3, 0.8 3 C0.98 2.7, 1.18 2.41, 1.4 2.14 C1.63 1.88, 1.88 1.63, 2.14 1.4 C2.41 1.18, 2.7 0.98, 3 0.8 C3.3 0.63, 3.62 0.48, 3.95 0.36 C4.27 0.24, 4.62 0.15, 4.96 0.09 C5.3 0.03, 5.65 0, 6 0 C6.35 0, 6.7 0.03, 7.04 0.09 C7.38 0.15, 7.73 0.24, 8.05 0.36 C8.38 0.48, 8.7 0.63, 9 0.8 C9.3 0.98, 9.59 1.18, 9.86 1.4 C10.12 1.63, 10.37 1.88, 10.6 2.14 C10.82 2.41, 11.02 2.7, 11.2 3 C11.37 3.3, 11.52 3.62, 11.64 3.95 C11.76 4.27, 11.85 4.62, 11.91 4.96 C11.97 5.3, 11.98 5.83, 12 6 C12.02 6.17, 12.02 5.83, 12 6" stroke="none" stroke-width="0" fill="#0000ff"/><path d="M12 6 C12 6.35, 11.97 6.7, 11.91 7.04 C11.85 7.38, 11.76 7.73, 11.64 8.05 C11.52 8.38, 11.37 8.7, 11.2 9 C11.02 9.3, 10.82 9.59, 10.6 9.86 C10.37 10.12, 10.12 10.37, 9.86 10.6 C9.59 10.82, 9.3 11.02, 9 11.2 C8.7 11.37, 8.38 11.52, 8.05 11.64 C7.73 11.76, 7.38 11.85, 7.04 11.91 C6.7 11.97, 6.35 12, 6 12 C5.65 12, 5.3 11.97, 4.96 11.91 C4.62 11.85, 4.27 11.76, 3.95 11.64 C3.62 11.52, 3.3 11.37, 3 11.2 C2.7 11.02, 2.41 10.82, 2.14 10.6 C1.88 10.37, 1.63 10.12, 1.4 9.86 C1.18 9.59, 0.98 9.3, 0.8 9 C0.63 8.7, 0.48 8.38, 0.36 8.05 C0.24 7.73, 0.15 7.38, 0.09 7.04 C0.03 6.7, 0 6.35, 0 6 C0 5.65, 0.03 5.3, 0.09 4.96 C0.15 4.62, 0.24 4.27, 0.36 3.95 C0.48 3.62, 0.63 3.3, 0.8 3 C0.98 2.7, 1.18 2.41, 1.4 2.14 C1.63 1.88, 1.88 1.63, 2.14 1.4 C2.41 1.18, 2.7 0.98, 3 0.8 C3.3 0.63, 3.62 0.48, 3.95 0.36 C4.27 0.24, 4.62 0.15, 4.96 0.09 C5.3 0.03, 5.65 0, 6 0 C6.35 0, 6.7 0.03, 7.04 0.09 C7.38 0.15, 7.73 0.24, 8.05 0.36 C8.38 0.48, 8.7 0.63, 9 0.8 C9.3 0.98, 9.59 1.18, 9.86 1.4 C10.12 1.63, 10.37 1.88, 10.6 2.14 C10.82 2.41, 11.02 2.7, 11.2 3 C11.37 3.3, 11.52 3.62, 11.64 3.95 C11.76 4.27, 11.85 4.62, 11.91 4.96 C11.97 5.3, 11.98 5.83, 12 6 C12.02 6.17, 12.02 5.83, 12 6" stroke="#0000ff" stroke-width="4" fill="none"/></g><g stroke-linecap="round" transform="translate(235.8125 87.2734375) rotate(0 6 6)"><path d="M12 6 C12 6.35, 11.97 6.7, 11.91 7.04 C11.85 7.38, 11.76 7.73, 11.64 8.05 C11.52 8.38, 11.37 8.7, 11.2 9 C11.02 9.3, 10.82 9.59, 10.6 9.86 C10.37 10.12, 10.12 10.37, 9.86 10.6 C9.59 10.82, 9.3 11.02, 9 11.2 C8.7 11.37, 8.38 11.52, 8.05 11.64 C7.73 11.76, 7.38 11.85, 7.04 11.91 C6.7 11.97, 6.35 12, 6 12 C5.65 12, 5.3 11.97, 4.96 11.91 C4.62 11.85, 4.27 11.76, 3.95 11.64 C3.62 11.52, 3.3 11.37, 3 11.2 C2.7 11.02, 2.41 10.82, 2.14 10.6 C1.88 10.37, 1.63 10.12, 1.4 9.86 C1.18 9.59, 0.98 9.3, 0.8 9 C0.63 8.7, 0.48 8.38, 0.36 8.05 C0.24 7.73, 0.15 7.38, 0.09 7.04 C0.03 6.7, 0 6.35, 0 6 C0 5.65, 0.03 5.3, 0.09 4.96 C0.15 4.62, 0.24 4.27, 0.36 3.95 C0.48 3.62, 0.63 3.3, 0.8 3 C0.98 2.7, 1.18 2.41, 1.4 2.14 C1.63 1.88, 1.88 1.63, 2.14 1.4 C2.41 1.18, 2.7 0.98, 3 0.8 C3.3 0.63, 3.62 0.48, 3.95 0.36 C4.27 0.24, 4.62 0.15, 4.96 0.09 C5.3 0.03, 5.65 0, 6 0 C6.35 0, 6.7 0.03, 7.04 0.09 C7.38 0.15, 7.73 0.24, 8.05 0.36 C8.38 0.48, 8.7 0.63, 9 0.8 C9.3 0.98, 9.59 1.18, 9.86 1.4 C10.12 1.63, 10.37 1.88, 10.6 2.14 C10.82 2.41, 11.02 2.7, 11.2 3 C11.37 3.3, 11.52 3.62, 11.64 3.95 C11.76 4.27, 11.85 4.62, 11.91 4.96 C11.97 5.3, 11.98 5.83, 12 6 C12.02 6.17, 12.02 5.83, 12 6" stroke="none" stroke-width="0" fill="#0000ff"/><path d="M12 6 C12 6.35, 11.97 6.7, 11.91 7.04 C11.85 7.38, 11.76 7.73, 11.64 8.05 C11.52 8.38, 11.37 8.7, 11.2 9 C11.02 9.3, 10.82 9.59, 10.6 9.86 C10.37 10.12, 10.12 10.37, 9.86 10.6 C9.59 10.82, 9.3 11.02, 9 11.2 C8.7 11.37, 8.38 11.52, 8.05 11.64 C7.73 11.76, 7.38 11.85, 7.04 11.91 C6.7 11.97, 6.35 12, 6 12 C5.65 12, 5.3 11.97, 4.96 11.91 C4.62 11.85, 4.27 11.76, 3.95 11.64 C3.62 11.52, 3.3 11.37, 3 11.2 C2.7 11.02, 2.41 10.82, 2.14 10.6 C1.88 10.37, 1.63 10.12, 1.4 9.86 C1.18 9.59, 0.98 9.3, 0.8 9 C0.63 8.7, 0.48 8.38, 0.36 8.05 C0.24 7.73, 0.15 7.38, 0.09 7.04 C0.03 6.7, 0 6.35, 0 6 C0 5.65, 0.03 5.3, 0.09 4.96 C0.15 4.62, 0.24 4.27, 0.36 3.95 C0.48 3.62, 0.63 3.3, 0.8 3 C0.98 2.7, 1.18 2.41, 1.4 2.14 C1.63 1.88, 1.88 1.63, 2.14 1.4 C2.41 1.18, 2.7 0.98, 3 0.8 C3.3 0.63, 3.62 0.48, 3.95 0.36 C4.27 0.24, 4.62 0.15, 4.96 0.09 C5.3 0.03, 5.65 0, 6 0 C6.35 0, 6.7 0.03, 7.04 0.09 C7.38 0.15, 7.73 0.24, 8.05 0.36 C8.38 0.48, 8.7 0.63, 9 0.8 C9.3 0.98, 9.59 1.18, 9.86 1.4 C10.12 1.63, 10.37 1.88, 10.6 2.14 C10.82 2.41, 11.02 2.7, 11.2 3 C11.37 3.3, 11.52 3.62, 11.64 3.95 C11.76 4.27, 11.85 4.62, 11.91 4.96 C11.97 5.3, 11.98 5.83, 12 6 C12.02 6.17, 12.02 5.83, 12 6" stroke="#0000ff" stroke-width="4" fill="none"/></g></svg>