<svg version="1.1" xmlns="http://www.w3.org/2000/svg" viewBox="0 0 1517.2676243108324 1612.3615131083461" width="1517.2676243108324" height="1612.3615131083461" class="excalidraw-svg">
  <!-- svg-source:excalidraw -->
  
  <defs>
    <style class="style-fonts">
      @font-face {
        font-family: "Virgil";
        src: url("https://excalidraw.com/Virgil.woff2");
      }
      @font-face {
        font-family: "Cascadia";
        src: url("https://excalidraw.com/Cascadia.woff2");
      }
      @font-face {
        font-family: "Assistant";
        src: url("https://excalidraw.com/Assistant-Regular.woff2");
      }
    </style>
    
  </defs>
  <rect x="0" y="0" width="1517.2676243108324" height="1612.3615131083461" fill="#ffffff"/><g stroke-linecap="round"><g transform="translate(1242.2676243108324 1512.3615131083461) rotate(0 -1 -158.5)"><path d="M0 0 C-0.33 -52.83, -1.67 -264.17, -2 -317 M0 0 C-0.33 -52.83, -1.67 -264.17, -2 -317" stroke="#1e1e1e" stroke-width="4" fill="none"/></g><g transform="translate(1242.2676243108324 1512.3615131083461) rotate(0 -1 -158.5)"><path d="M6.7 -293.56 C4.2 -300.29, 1.71 -307.01, -2 -317 M6.7 -293.56 C4.27 -300.1, 1.85 -306.64, -2 -317" stroke="#1e1e1e" stroke-width="4" fill="none"/></g><g transform="translate(1242.2676243108324 1512.3615131083461) rotate(0 -1 -158.5)"><path d="M-10.4 -293.45 C-7.99 -300.21, -5.58 -306.97, -2 -317 M-10.4 -293.45 C-8.06 -300.02, -5.72 -306.59, -2 -317" stroke="#1e1e1e" stroke-width="4" fill="none"/></g></g><mask/><g stroke-linecap="round"><g transform="translate(1208.2676243108324 1461.8615131083461) rotate(0 149.5 1)"><path d="M0 0 C49.83 0.33, 249.17 1.67, 299 2 M0 0 C49.83 0.33, 249.17 1.67, 299 2" stroke="#1e1e1e" stroke-width="4" fill="none"/></g><g transform="translate(1208.2676243108324 1461.8615131083461) rotate(0 149.5 1)"><path d="M275.45 10.39 C281.12 8.37, 286.78 6.35, 299 2 M275.45 10.39 C284.5 7.17, 293.55 3.94, 299 2" stroke="#1e1e1e" stroke-width="4" fill="none"/></g><g transform="translate(1208.2676243108324 1461.8615131083461) rotate(0 149.5 1)"><path d="M275.57 -6.71 C281.2 -4.61, 286.84 -2.52, 299 2 M275.57 -6.71 C284.57 -3.36, 293.58 -0.02, 299 2" stroke="#1e1e1e" stroke-width="4" fill="none"/></g></g><mask/><g stroke-linecap="round" transform="translate(1281.2676243108324 1332.3615131083461) rotate(0 6 6)"><path d="M12 6 C12 6.35, 11.97 6.7, 11.91 7.04 C11.85 7.38, 11.76 7.73, 11.64 8.05 C11.52 8.38, 11.37 8.7, 11.2 9 C11.02 9.3, 10.82 9.59, 10.6 9.86 C10.37 10.12, 10.12 10.37, 9.86 10.6 C9.59 10.82, 9.3 11.02, 9 11.2 C8.7 11.37, 8.38 11.52, 8.05 11.64 C7.73 11.76, 7.38 11.85, 7.04 11.91 C6.7 11.97, 6.35 12, 6 12 C5.65 12, 5.3 11.97, 4.96 11.91 C4.62 11.85, 4.27 11.76, 3.95 11.64 C3.62 11.52, 3.3 11.37, 3 11.2 C2.7 11.02, 2.41 10.82, 2.14 10.6 C1.88 10.37, 1.63 10.12, 1.4 9.86 C1.18 9.59, 0.98 9.3, 0.8 9 C0.63 8.7, 0.48 8.38, 0.36 8.05 C0.24 7.73, 0.15 7.38, 0.09 7.04 C0.03 6.7, 0 6.35, 0 6 C0 5.65, 0.03 5.3, 0.09 4.96 C0.15 4.62, 0.24 4.27, 0.36 3.95 C0.48 3.62, 0.63 3.3, 0.8 3 C0.98 2.7, 1.18 2.41, 1.4 2.14 C1.63 1.88, 1.88 1.63, 2.14 1.4 C2.41 1.18, 2.7 0.98, 3 0.8 C3.3 0.63, 3.62 0.48, 3.95 0.36 C4.27 0.24, 4.62 0.15, 4.96 0.09 C5.3 0.03, 5.65 0, 6 0 C6.35 0, 6.7 0.03, 7.04 0.09 C7.38 0.15, 7.73 0.24, 8.05 0.36 C8.38 0.48, 8.7 0.63, 9 0.8 C9.3 0.98, 9.59 1.18, 9.86 1.4 C10.12 1.63, 10.37 1.88, 10.6 2.14 C10.82 2.41, 11.02 2.7, 11.2 3 C11.37 3.3, 11.52 3.62, 11.64 3.95 C11.76 4.27, 11.85 4.62, 11.91 4.96 C11.97 5.3, 11.98 5.83, 12 6 C12.02 6.17, 12.02 5.83, 12 6" stroke="none" stroke-width="0" fill="#fe3434"/><path d="M12 6 C12 6.35, 11.97 6.7, 11.91 7.04 C11.85 7.38, 11.76 7.73, 11.64 8.05 C11.52 8.38, 11.37 8.7, 11.2 9 C11.02 9.3, 10.82 9.59, 10.6 9.86 C10.37 10.12, 10.12 10.37, 9.86 10.6 C9.59 10.82, 9.3 11.02, 9 11.2 C8.7 11.37, 8.38 11.52, 8.05 11.64 C7.73 11.76, 7.38 11.85, 7.04 11.91 C6.7 11.97, 6.35 12, 6 12 C5.65 12, 5.3 11.97, 4.96 11.91 C4.62 11.85, 4.27 11.76, 3.95 11.64 C3.62 11.52, 3.3 11.37, 3 11.2 C2.7 11.02, 2.41 10.82, 2.14 10.6 C1.88 10.37, 1.63 10.12, 1.4 9.86 C1.18 9.59, 0.98 9.3, 0.8 9 C0.63 8.7, 0.48 8.38, 0.36 8.05 C0.24 7.73, 0.15 7.38, 0.09 7.04 C0.03 6.7, 0 6.35, 0 6 C0 5.65, 0.03 5.3, 0.09 4.96 C0.15 4.62, 0.24 4.27, 0.36 3.95 C0.48 3.62, 0.63 3.3, 0.8 3 C0.98 2.7, 1.18 2.41, 1.4 2.14 C1.63 1.88, 1.88 1.63, 2.14 1.4 C2.41 1.18, 2.7 0.98, 3 0.8 C3.3 0.63, 3.62 0.48, 3.95 0.36 C4.27 0.24, 4.62 0.15, 4.96 0.09 C5.3 0.03, 5.65 0, 6 0 C6.35 0, 6.7 0.03, 7.04 0.09 C7.38 0.15, 7.73 0.24, 8.05 0.36 C8.38 0.48, 8.7 0.63, 9 0.8 C9.3 0.98, 9.59 1.18, 9.86 1.4 C10.12 1.63, 10.37 1.88, 10.6 2.14 C10.82 2.41, 11.02 2.7, 11.2 3 C11.37 3.3, 11.52 3.62, 11.64 3.95 C11.76 4.27, 11.85 4.62, 11.91 4.96 C11.97 5.3, 11.98 5.83, 12 6 C12.02 6.17, 12.02 5.83, 12 6" stroke="#1e1e1e" stroke-width="4" fill="none"/></g><g stroke-linecap="round"><g transform="translate(966.2676243108325 1602.3615131083461) rotate(0 -1 -158.5)"><path d="M0 0 C-0.33 -52.83, -1.67 -264.17, -2 -317 M0 0 C-0.33 -52.83, -1.67 -264.17, -2 -317" stroke="#1e1e1e" stroke-width="4" fill="none"/></g><g transform="translate(966.2676243108325 1602.3615131083461) rotate(0 -1 -158.5)"><path d="M6.7 -293.56 C3.55 -302.04, 0.41 -310.51, -2 -317 M6.7 -293.56 C4.11 -300.55, 1.51 -307.54, -2 -317" stroke="#1e1e1e" stroke-width="4" fill="none"/></g><g transform="translate(966.2676243108325 1602.3615131083461) rotate(0 -1 -158.5)"><path d="M-10.4 -293.45 C-7.36 -301.97, -4.33 -310.48, -2 -317 M-10.4 -293.45 C-7.9 -300.47, -5.39 -307.49, -2 -317" stroke="#1e1e1e" stroke-width="4" fill="none"/></g></g><mask/><g stroke-linecap="round"><g transform="translate(932.2676243108325 1551.8615131083461) rotate(0 149.5 1)"><path d="M0 0 C49.83 0.33, 249.17 1.67, 299 2 M0 0 C49.83 0.33, 249.17 1.67, 299 2" stroke="#1e1e1e" stroke-width="4" fill="none"/></g><g transform="translate(932.2676243108325 1551.8615131083461) rotate(0 149.5 1)"><path d="M275.45 10.39 C284.51 7.16, 293.58 3.93, 299 2 M275.45 10.39 C284.75 7.08, 294.06 3.76, 299 2" stroke="#1e1e1e" stroke-width="4" fill="none"/></g><g transform="translate(932.2676243108325 1551.8615131083461) rotate(0 149.5 1)"><path d="M275.57 -6.71 C284.58 -3.36, 293.6 -0.01, 299 2 M275.57 -6.71 C284.82 -3.27, 294.08 0.17, 299 2" stroke="#1e1e1e" stroke-width="4" fill="none"/></g></g><mask/><g stroke-linecap="round" transform="translate(1005.2676243108325 1422.3615131083461) rotate(0 6 6)"><path d="M12 6 C12 6.35, 11.97 6.7, 11.91 7.04 C11.85 7.38, 11.76 7.73, 11.64 8.05 C11.52 8.38, 11.37 8.7, 11.2 9 C11.02 9.3, 10.82 9.59, 10.6 9.86 C10.37 10.12, 10.12 10.37, 9.86 10.6 C9.59 10.82, 9.3 11.02, 9 11.2 C8.7 11.37, 8.38 11.52, 8.05 11.64 C7.73 11.76, 7.38 11.85, 7.04 11.91 C6.7 11.97, 6.35 12, 6 12 C5.65 12, 5.3 11.97, 4.96 11.91 C4.62 11.85, 4.27 11.76, 3.95 11.64 C3.62 11.52, 3.3 11.37, 3 11.2 C2.7 11.02, 2.41 10.82, 2.14 10.6 C1.88 10.37, 1.63 10.12, 1.4 9.86 C1.18 9.59, 0.98 9.3, 0.8 9 C0.63 8.7, 0.48 8.38, 0.36 8.05 C0.24 7.73, 0.15 7.38, 0.09 7.04 C0.03 6.7, 0 6.35, 0 6 C0 5.65, 0.03 5.3, 0.09 4.96 C0.15 4.62, 0.24 4.27, 0.36 3.95 C0.48 3.62, 0.63 3.3, 0.8 3 C0.98 2.7, 1.18 2.41, 1.4 2.14 C1.63 1.88, 1.88 1.63, 2.14 1.4 C2.41 1.18, 2.7 0.98, 3 0.8 C3.3 0.63, 3.62 0.48, 3.95 0.36 C4.27 0.24, 4.62 0.15, 4.96 0.09 C5.3 0.03, 5.65 0, 6 0 C6.35 0, 6.7 0.03, 7.04 0.09 C7.38 0.15, 7.73 0.24, 8.05 0.36 C8.38 0.48, 8.7 0.63, 9 0.8 C9.3 0.98, 9.59 1.18, 9.86 1.4 C10.12 1.63, 10.37 1.88, 10.6 2.14 C10.82 2.41, 11.02 2.7, 11.2 3 C11.37 3.3, 11.52 3.62, 11.64 3.95 C11.76 4.27, 11.85 4.62, 11.91 4.96 C11.97 5.3, 11.98 5.83, 12 6 C12.02 6.17, 12.02 5.83, 12 6" stroke="none" stroke-width="0" fill="#fe3434"/><path d="M12 6 C12 6.35, 11.97 6.7, 11.91 7.04 C11.85 7.38, 11.76 7.73, 11.64 8.05 C11.52 8.38, 11.37 8.7, 11.2 9 C11.02 9.3, 10.82 9.59, 10.6 9.86 C10.37 10.12, 10.12 10.37, 9.86 10.6 C9.59 10.82, 9.3 11.02, 9 11.2 C8.7 11.37, 8.38 11.52, 8.05 11.64 C7.73 11.76, 7.38 11.85, 7.04 11.91 C6.7 11.97, 6.35 12, 6 12 C5.65 12, 5.3 11.97, 4.96 11.91 C4.62 11.85, 4.27 11.76, 3.95 11.64 C3.62 11.52, 3.3 11.37, 3 11.2 C2.7 11.02, 2.41 10.82, 2.14 10.6 C1.88 10.37, 1.63 10.12, 1.4 9.86 C1.18 9.59, 0.98 9.3, 0.8 9 C0.63 8.7, 0.48 8.38, 0.36 8.05 C0.24 7.73, 0.15 7.38, 0.09 7.04 C0.03 6.7, 0 6.35, 0 6 C0 5.65, 0.03 5.3, 0.09 4.96 C0.15 4.62, 0.24 4.27, 0.36 3.95 C0.48 3.62, 0.63 3.3, 0.8 3 C0.98 2.7, 1.18 2.41, 1.4 2.14 C1.63 1.88, 1.88 1.63, 2.14 1.4 C2.41 1.18, 2.7 0.98, 3 0.8 C3.3 0.63, 3.62 0.48, 3.95 0.36 C4.27 0.24, 4.62 0.15, 4.96 0.09 C5.3 0.03, 5.65 0, 6 0 C6.35 0, 6.7 0.03, 7.04 0.09 C7.38 0.15, 7.73 0.24, 8.05 0.36 C8.38 0.48, 8.7 0.63, 9 0.8 C9.3 0.98, 9.59 1.18, 9.86 1.4 C10.12 1.63, 10.37 1.88, 10.6 2.14 C10.82 2.41, 11.02 2.7, 11.2 3 C11.37 3.3, 11.52 3.62, 11.64 3.95 C11.76 4.27, 11.85 4.62, 11.91 4.96 C11.97 5.3, 11.98 5.83, 12 6 C12.02 6.17, 12.02 5.83, 12 6" stroke="#1e1e1e" stroke-width="4" fill="none"/></g><g stroke-linecap="round"><g transform="translate(11.517624310832474 10.194917649361741) rotate(0 -0.5 0.5)"><path d="M-0.24 -0.19 C-0.49 0.07, -1.09 1.17, -1.16 1.34 M0.29 0.47 C-0.05 0.66, -1.35 0.78, -1.52 0.88" stroke="#1e1e1e" stroke-width="2" fill="none"/></g><g transform="translate(11.517624310832474 10.194917649361741) rotate(0 -0.5 0.5)"><path d="M-0.93 0.49 C-1.18 0.63, -1.37 0.82, -1.52 0.88 M-0.93 0.49 C-1.07 0.58, -1.21 0.68, -1.52 0.88" stroke="#1e1e1e" stroke-width="2" fill="none"/></g><g transform="translate(11.517624310832474 10.194917649361741) rotate(0 -0.5 0.5)"><path d="M-0.81 0.96 C-1.11 0.92, -1.35 0.92, -1.52 0.88 M-0.81 0.96 C-0.98 0.94, -1.15 0.92, -1.52 0.88" stroke="#1e1e1e" stroke-width="2" fill="none"/></g></g><mask/></svg>